<?xml version="1.0" ?><svg height="512" id="svg2" version="1.1" width="512" xmlns="http://www.w3.org/2000/svg" xmlns:cc="http://creativecommons.org/ns#" xmlns:dc="http://purl.org/dc/elements/1.1/" xmlns:inkscape="http://www.inkscape.org/namespaces/inkscape" xmlns:rdf="http://www.w3.org/1999/02/22-rdf-syntax-ns#" xmlns:sodipodi="http://sodipodi.sourceforge.net/DTD/sodipodi-0.dtd" xmlns:svg="http://www.w3.org/2000/svg"><defs id="defs4"/><g id="layer1" transform="translate(0,-540.36218)"><g id="g3001"><path d="M 427.40625,585.36218 340.34375,632.95593 361,648.64343 c -14.87208,20.08283 -56.14318,71.50234 -111.1875,104.875 C 181.85042,794.72297 49.625,813.48718 49.625,813.48718 l 3.9375,29.71875 c 0,0 133.12382,-16.32331 211.8125,-64.03125 60.00457,-36.38001 103.25844,-90.20634 119.53125,-112.34375 l 19.9375,15.15625 22.5625,-96.625 z" id="path3803" style="fill:#000000;stroke:none"/><path d="m 458.4375,749.51845 c 0,0 -133.12382,16.32331 -211.8125,64.03125 -60.00457,36.38001 -103.25844,90.20634 -119.53125,112.34375 l -19.9375,-15.15625 -22.5625,96.625 87.0625,-47.59375 L 151,944.08095 c 14.87208,-20.08283 56.14318,-71.50234 111.1875,-104.875 C 330.14958,798.00141 462.375,779.2372 462.375,779.2372 l -3.9375,-29.71875 z" id="path2983" style="fill:#000000;stroke:none"/></g></g></svg>